<svg width="71" height="65" viewBox="0 0 71 65" fill="none" xmlns="http://www.w3.org/2000/svg">
<g opacity="0.4" filter="url(#filter0_f_3_87)">
<ellipse cx="35.5" cy="42" rx="20.5" ry="8" fill="#519872"/>
</g>
<circle cx="36" cy="19" r="19" fill="#519872"/>
<path fill-rule="evenodd" clip-rule="evenodd" d="M36 0C25.5066 0 17 8.50659 17 19C17 29.4934 25.5066 38 36 38C46.4934 38 55 29.4934 55 19C55 8.50659 46.4934 0 36 0ZM31.8226 8.92789C32.9035 8.8787 33.2489 8.86667 36.0009 8.86667H35.9978C38.7507 8.86667 39.0948 8.8787 40.1757 8.92789C41.2545 8.97729 41.9913 9.14808 42.6373 9.39867C43.3044 9.65729 43.8681 10.0035 44.4318 10.5672C44.9954 11.1304 45.3417 11.6958 45.6013 12.3623C45.8504 13.0066 46.0214 13.743 46.0721 14.8218C46.1207 15.9027 46.1333 16.248 46.1333 19.0001C46.1333 21.7522 46.1207 22.0967 46.0721 23.1776C46.0214 24.256 45.8504 24.9926 45.6013 25.6371C45.3417 26.3034 44.9954 26.8687 44.4318 27.432C43.8687 27.9956 43.3042 28.3427 42.6379 28.6015C41.9932 28.8521 41.256 29.0229 40.1772 29.0723C39.0963 29.1215 38.752 29.1335 35.9997 29.1335C33.2478 29.1335 32.9027 29.1215 31.8218 29.0723C30.7432 29.0229 30.0066 28.8521 29.3619 28.6015C28.6958 28.3427 28.1304 27.9956 27.5674 27.432C27.0039 26.8687 26.6577 26.3034 26.3987 25.6369C26.1483 24.9926 25.9775 24.2562 25.9279 23.1774C25.8789 22.0965 25.8667 21.7522 25.8667 19.0001C25.8667 16.248 25.8793 15.9024 25.9277 14.8215C25.9762 13.7432 26.1472 13.0066 26.3985 12.3621C26.6581 11.6958 27.0044 11.1304 27.568 10.5672C28.1313 10.0037 28.6966 9.6575 29.3631 9.39867C30.0074 9.14808 30.7438 8.97729 31.8226 8.92789Z" fill="white"/>
<path fill-rule="evenodd" clip-rule="evenodd" d="M35.0919 10.6928C35.2684 10.6925 35.4583 10.6926 35.6632 10.6927L36.0009 10.6928C38.7066 10.6928 39.0273 10.7025 40.0957 10.7511C41.0837 10.7962 41.6199 10.9613 41.9771 11.1C42.45 11.2837 42.7872 11.5033 43.1416 11.8579C43.4963 12.2126 43.7159 12.5504 43.9 13.0233C44.0387 13.3801 44.204 13.9163 44.2489 14.9043C44.2975 15.9725 44.308 16.2934 44.308 18.9978C44.308 21.7021 44.2975 22.023 44.2489 23.0913C44.2038 24.0793 44.0387 24.6155 43.9 24.9723C43.7163 25.4452 43.4963 25.7819 43.1416 26.1364C42.787 26.491 42.4502 26.7106 41.9771 26.8943C41.6204 27.0336 41.0837 27.1983 40.0957 27.2434C39.0275 27.292 38.7066 27.3026 36.0009 27.3026C33.2951 27.3026 32.9744 27.292 31.9062 27.2434C30.9182 27.1978 30.382 27.0328 30.0245 26.8941C29.5516 26.7104 29.2139 26.4908 28.8592 26.1362C28.5045 25.7815 28.285 25.4446 28.1009 24.9714C27.9622 24.6147 27.7969 24.0784 27.7519 23.0904C27.7033 22.0222 27.6936 21.7013 27.6936 18.9953C27.6936 16.2892 27.7033 15.97 27.7519 14.9018C27.7971 13.9138 27.9622 13.3775 28.1009 13.0203C28.2845 12.5474 28.5045 12.2096 28.8592 11.855C29.2139 11.5003 29.5516 11.2807 30.0245 11.0967C30.3817 10.9573 30.9182 10.7927 31.9062 10.7473C32.841 10.705 33.2033 10.6924 35.0919 10.6903V10.6928ZM41.4101 12.3754C40.7387 12.3754 40.1941 12.9194 40.1941 13.591C40.1941 14.2623 40.7387 14.807 41.4101 14.807C42.0814 14.807 42.6261 14.2623 42.6261 13.591C42.6261 12.9196 42.0814 12.3749 41.4101 12.3749V12.3754ZM30.797 19.0001C30.797 16.1263 33.1269 13.7963 36.0007 13.7962C38.8746 13.7962 41.204 16.1262 41.204 19.0001C41.204 21.874 38.8748 24.203 36.0009 24.203C33.1271 24.203 30.797 21.874 30.797 19.0001Z" fill="white"/>
<path d="M36.001 15.6223C37.8663 15.6223 39.3788 17.1345 39.3788 19.0001C39.3788 20.8655 37.8663 22.3779 36.001 22.3779C34.1353 22.3779 32.6231 20.8655 32.6231 19.0001C32.6231 17.1345 34.1353 15.6223 36.001 15.6223V15.6223Z" fill="white"/>
<defs>
<filter id="filter0_f_3_87" x="0" y="19" width="71" height="46" filterUnits="userSpaceOnUse" color-interpolation-filters="sRGB">
<feFlood flood-opacity="0" result="BackgroundImageFix"/>
<feBlend mode="normal" in="SourceGraphic" in2="BackgroundImageFix" result="shape"/>
<feGaussianBlur stdDeviation="7.5" result="effect1_foregroundBlur_3_87"/>
</filter>
</defs>
</svg>
