<svg width="113" height="31" viewBox="0 0 113 31" fill="none" xmlns="http://www.w3.org/2000/svg">
<path fill-rule="evenodd" clip-rule="evenodd" d="M5.75543 12.7712C6.4221 13.0004 7.28668 13.1149 8.34918 13.1149C8.68252 13.1149 9.00543 13.1045 9.31793 13.0837C9.65127 13.0629 9.96377 13.0212 10.2554 12.9587C10.0054 14.2087 9.70335 15.5004 9.34918 16.8337C8.99502 18.1462 8.57835 19.4587 8.09918 20.7712C7.82835 21.4587 7.57835 22.0733 7.34918 22.6149C7.12002 23.1566 6.89085 23.6358 6.66168 24.0524C6.34918 23.9483 6.02627 23.8545 5.69293 23.7712C5.38043 23.7087 5.0471 23.6774 4.69293 23.6774C3.7346 23.6774 2.95335 23.7816 2.34918 23.9899C1.74502 24.2191 1.27627 24.4899 0.942935 24.8024C0.588768 25.1149 0.349185 25.4379 0.224185 25.7712C0.0991848 26.1254 0.0262681 26.4274 0.00543477 26.6774C-0.0362319 27.3649 0.161685 27.9066 0.599185 28.3024C1.03668 28.7191 1.62002 28.9274 2.34918 28.9274C3.26585 28.9274 4.09918 28.7399 4.84918 28.3649C5.59918 27.9899 6.28668 27.5004 6.91168 26.8962C7.37002 27.2087 7.8596 27.542 8.38043 27.8962C8.9221 28.2712 9.49502 28.6149 10.0992 28.9274C10.7034 29.2399 11.3492 29.5004 12.0367 29.7087C12.7242 29.9379 13.4638 30.0524 14.2554 30.0524C15.0054 30.0524 15.6304 29.8649 16.1304 29.4899C16.6304 29.1149 17.0159 28.6774 17.2867 28.1774C17.5575 27.6774 17.7138 27.1774 17.7554 26.6774C17.8179 26.1774 17.7763 25.8024 17.6304 25.5524C17.2346 25.9899 16.8075 26.3233 16.3492 26.5524C15.8909 26.8024 15.4534 26.9795 15.0367 27.0837C14.5575 27.2087 14.0679 27.2816 13.5679 27.3024C13.0888 27.3024 12.6304 27.2295 12.1929 27.0837C11.7763 26.9379 11.3596 26.7504 10.9429 26.5212C10.5263 26.3129 10.1096 26.0733 9.69293 25.8024C9.2971 25.5316 8.90127 25.2712 8.50543 25.0212C9.15127 24.1045 9.69293 23.1462 10.1304 22.1462C10.5888 21.1462 10.9638 20.2399 11.2554 19.4274C11.5888 18.5524 11.9221 17.4483 12.2554 16.1149C12.6096 14.7608 12.9638 13.3962 13.3179 12.0212C14.3596 11.5629 15.2971 10.9795 16.1304 10.2712C16.9846 9.56285 17.7138 8.81285 18.3179 8.02119C18.9221 7.22952 19.3909 6.42744 19.7242 5.61494C20.0575 4.80244 20.2242 4.05244 20.2242 3.36494C20.2242 3.05244 20.2034 2.7191 20.1617 2.36494C20.1409 1.98994 20.0471 1.64619 19.8804 1.33369C19.7346 1.02119 19.5054 0.76077 19.1929 0.552436C18.9013 0.344103 18.495 0.239936 17.9742 0.239936C17.2659 0.239936 16.6409 0.344103 16.0992 0.552436C15.5575 0.76077 15.0575 1.06285 14.5992 1.45869C14.1617 1.83369 13.7554 2.30244 13.3804 2.86494C13.0263 3.4066 12.6825 4.02119 12.3492 4.70869C12.0367 5.33369 11.7554 6.14619 11.5054 7.14619C11.2763 8.14619 11.0367 9.27119 10.7867 10.5212C10.2034 10.7087 9.6096 10.8545 9.00543 10.9587C8.4221 11.0629 7.81793 11.1149 7.19293 11.1149C6.8596 11.1149 6.51585 11.0837 6.16168 11.0212C5.87002 10.9795 5.5471 10.9066 5.19293 10.8024C4.8596 10.6774 4.5471 10.5004 4.25543 10.2712C4.1096 10.6254 4.07835 10.9483 4.16168 11.2399C4.24502 11.5316 4.33877 11.7504 4.44293 11.8962C4.6721 12.2504 5.1096 12.542 5.75543 12.7712ZM4.09918 26.9274C3.74502 27.0316 3.43252 27.1358 3.16168 27.2399C2.93252 27.2816 2.75543 27.2608 2.63043 27.1774C2.50543 27.1149 2.44293 27.0108 2.44293 26.8649C2.44293 26.6566 2.62002 26.4379 2.97418 26.2087C3.30752 26.0004 3.84918 25.8962 4.59918 25.8962C4.76585 25.8962 5.00543 25.9483 5.31793 26.0524C4.8596 26.5316 4.45335 26.8233 4.09918 26.9274ZM14.5679 6.86494C14.7346 6.26077 14.87 5.80244 14.9742 5.48994C15.2867 4.5941 15.6721 3.92744 16.1304 3.48994C16.5888 3.0316 16.9638 2.80244 17.2554 2.80244C17.5888 2.80244 17.7554 3.08369 17.7554 3.64619C17.7554 4.58369 17.4117 5.52119 16.7242 6.45869C16.0575 7.39619 15.1617 8.22952 14.0367 8.95869C14.2242 8.16702 14.4013 7.4691 14.5679 6.86494ZM21.6804 23.8649C22.1804 24.1149 22.8263 24.2399 23.6179 24.2399C24.4096 24.2399 25.1284 24.042 25.7742 23.6462C26.42 23.2295 26.9825 22.6462 27.4617 21.8962C27.6909 22.6254 27.9617 23.1879 28.2742 23.5837C28.6075 23.9587 29.0554 24.1462 29.6179 24.1462C30.2429 24.1462 30.9096 23.8962 31.6179 23.3962C32.3263 22.8962 33.0242 22.2712 33.7117 21.5212C34.42 20.7712 35.0763 19.9587 35.6804 19.0837C35.7915 18.9245 35.8992 18.767 36.0037 18.6112C35.9916 19.9239 36.0985 20.9564 36.3242 21.7087C36.5742 22.5212 36.8763 23.1149 37.2304 23.4899C37.5846 23.8649 37.9492 24.0837 38.3242 24.1462C38.6992 24.2087 39.0013 24.2399 39.2304 24.2399C39.9596 24.2399 40.6992 23.9691 41.4492 23.4274C42.22 22.8858 42.9179 22.2087 43.5429 21.3962C44.1679 20.5629 44.6992 19.667 45.1367 18.7087C45.5742 17.7295 45.8346 16.8233 45.9179 15.9899C46.2929 15.9899 46.7096 15.9483 47.1679 15.8649C47.6263 15.7816 48.1054 15.667 48.6054 15.5212C49.1054 15.3754 49.6054 15.1983 50.1054 14.9899C50.6165 14.7651 51.1074 14.5202 51.5784 14.2552C51.3041 14.6211 51.0381 15.0118 50.7804 15.4274C50.1554 16.4691 49.6971 17.6254 49.4054 18.8962C49.1763 19.8337 49.0929 20.6462 49.1554 21.3337C49.2179 22.0004 49.3638 22.5524 49.5929 22.9899C49.8221 23.4066 50.1034 23.7087 50.4367 23.8962C50.77 24.1045 51.0825 24.2087 51.3742 24.2087C51.9992 24.167 52.6242 24.0316 53.2492 23.8024C53.7909 23.5941 54.3638 23.2712 54.9679 22.8337C55.5721 22.3754 56.1242 21.7295 56.6242 20.8962C56.6034 21.4587 56.6346 21.9274 56.7179 22.3024C56.8221 22.6774 56.9263 22.9795 57.0304 23.2087C57.1554 23.4795 57.3117 23.6879 57.4992 23.8337C57.6867 23.9587 57.9054 24.042 58.1554 24.0837C58.4054 24.1462 58.6659 24.167 58.9367 24.1462C59.2284 24.1254 59.5096 24.0733 59.7804 23.9899C60.0513 23.9066 60.2909 23.8024 60.4992 23.6774C60.6057 23.6064 60.7207 23.5184 60.8442 23.4135C60.8484 23.5677 60.8855 23.7077 60.9554 23.8337C61.0596 24.042 61.3304 24.1254 61.7679 24.0837C62.7054 23.9795 63.7471 23.9066 64.8929 23.8649C66.0596 23.8233 67.3408 23.7816 68.7367 23.7399C69.4867 23.7191 70.2783 23.7191 71.1117 23.7399C71.9658 23.7816 72.7471 23.8233 73.4554 23.8649C74.1846 23.9274 74.7992 23.9795 75.2992 24.0212C75.7992 24.0629 76.0804 24.0733 76.1429 24.0524C76.2888 24.0108 76.4346 23.9379 76.5804 23.8337C76.7263 23.7295 76.8617 23.4899 76.9867 23.1149C77.1325 22.7191 77.1742 22.4483 77.1117 22.3024C77.07 22.1358 76.9658 22.0212 76.7992 21.9587C76.7158 21.9379 76.4763 21.8962 76.0804 21.8337C75.6846 21.7504 75.1638 21.667 74.5179 21.5837C73.8721 21.5004 73.1221 21.4379 72.2679 21.3962C71.4346 21.3545 70.5388 21.3545 69.5804 21.3962C68.8096 21.3754 68.0075 21.3754 67.1742 21.3962C66.445 21.417 65.6221 21.4483 64.7054 21.4899C63.9983 21.5221 63.2665 21.5728 62.5098 21.6421C62.7042 21.4108 62.8986 21.1725 63.0929 20.9274C63.5929 20.3024 64.0721 19.6879 64.5304 19.0837C64.9888 18.4587 65.3638 17.9379 65.6554 17.5212C65.9054 17.1879 66.0513 16.8962 66.0929 16.6462C66.1554 16.3962 66.145 16.2087 66.0617 16.0837C65.9784 15.9587 65.8534 15.917 65.6867 15.9587C65.52 15.9795 65.3534 16.0837 65.1867 16.2712C65.0617 16.4379 64.8534 16.6983 64.5617 17.0524C64.2909 17.4066 63.9784 17.8129 63.6242 18.2712C63.27 18.7295 62.8846 19.2087 62.4679 19.7087C62.0721 20.1879 61.6867 20.6358 61.3117 21.0524C60.9367 21.4483 60.5825 21.7816 60.2492 22.0524C59.9159 22.3024 59.645 22.4274 59.4367 22.4274C59.1867 22.4274 58.9888 22.3754 58.8429 22.2712C58.7179 22.1462 58.6242 21.9899 58.5617 21.8024C58.4992 21.6149 58.4575 21.417 58.4367 21.2087C58.4367 20.9795 58.4471 20.7712 58.4679 20.5837L58.6242 19.8024C58.6659 19.5941 58.6971 19.417 58.7179 19.2712C58.7596 19.1045 58.7909 18.9483 58.8117 18.8024C58.8534 18.6358 58.895 18.4587 58.9367 18.2712C59.145 17.3129 59.3117 16.5316 59.4367 15.9274C59.5617 15.3233 59.6554 14.8441 59.7179 14.4899C59.7804 14.1358 59.8117 13.8962 59.8117 13.7712C59.8117 13.6254 59.8013 13.5316 59.7804 13.4899C59.7388 13.4691 59.6554 13.4587 59.5304 13.4587C59.4263 13.4587 59.27 13.4691 59.0617 13.4899C58.8742 13.5108 58.6346 13.5524 58.3429 13.6149C58.7804 12.9483 58.9471 12.417 58.8429 12.0212C58.7596 11.6045 58.5721 11.292 58.2804 11.0837C57.9263 10.8545 57.4679 10.6879 56.9054 10.5837C56.4263 10.542 55.8221 10.7087 55.0929 11.0837C54.3638 11.4587 53.6242 12.0212 52.8742 12.7712C52.5839 13.0534 52.3014 13.3591 52.0266 13.6882C52.0308 13.6052 52.0154 13.5287 51.9804 13.4587C51.9388 13.3337 51.845 13.2504 51.6992 13.2087C51.5534 13.167 51.3659 13.1983 51.1367 13.3024C50.3242 13.6566 49.4596 13.9483 48.5429 14.1774C47.6263 14.4066 46.7513 14.5316 45.9179 14.5524C45.8346 13.8649 45.6679 13.3024 45.4179 12.8649C45.1679 12.4066 44.8659 12.1774 44.5117 12.1774C44.2825 12.1774 44.0325 12.2295 43.7617 12.3337C43.4909 12.4379 43.2409 12.5837 43.0117 12.7712C42.7825 12.9587 42.5846 13.1879 42.4179 13.4587C42.2513 13.7087 42.1679 13.9795 42.1679 14.2712C42.1679 14.7087 42.3034 15.0629 42.5742 15.3337C42.845 15.5837 43.1784 15.7608 43.5742 15.8649C43.5117 16.4691 43.345 17.1566 43.0742 17.9274C42.8242 18.6774 42.5117 19.3858 42.1367 20.0524C41.7617 20.7191 41.3346 21.2816 40.8554 21.7399C40.3763 22.1983 39.8867 22.4274 39.3867 22.4274C38.7825 22.4274 38.3763 21.9691 38.1679 21.0524C37.9596 20.1358 37.9596 18.9274 38.1679 17.4274C38.4804 16.8233 38.8346 16.1149 39.2304 15.3024C39.6471 14.4899 40.0534 13.5941 40.4492 12.6149C40.8659 11.6149 41.2617 10.5524 41.6367 9.42744C42.0325 8.2816 42.3867 7.08369 42.6992 5.83369C43.0534 4.52119 43.2513 3.44827 43.2929 2.61494C43.3554 1.7816 43.3242 1.32327 43.1992 1.23994C43.1159 1.19827 42.97 1.16702 42.7617 1.14619C42.5534 1.12535 42.3242 1.14619 42.0742 1.20869C41.845 1.25035 41.6054 1.33369 41.3554 1.45869C41.1054 1.56285 40.8867 1.72952 40.6992 1.95869C40.5534 2.12535 40.3346 2.50035 40.0429 3.08369C39.7721 3.66702 39.47 4.39619 39.1367 5.27119C38.8034 6.12535 38.4492 7.0941 38.0742 8.17744C37.72 9.23994 37.3971 10.3441 37.1054 11.4899C36.8138 12.6358 36.5638 13.7816 36.3554 14.9274C36.2572 15.4675 36.1799 15.9936 36.1233 16.5059C36.0921 16.55 36.0591 16.5968 36.0242 16.6462C35.7742 16.9795 35.4721 17.3754 35.1179 17.8337C34.7638 18.292 34.3679 18.7816 33.9304 19.3024C33.5138 19.8024 33.0867 20.2712 32.6492 20.7087C32.2325 21.1254 31.8263 21.4795 31.4304 21.7712C31.0346 22.042 30.6909 22.1774 30.3992 22.1774C30.2325 22.1774 30.0763 22.1462 29.9304 22.0837C29.8054 22.0004 29.6909 21.8649 29.5867 21.6774C29.5034 21.4691 29.4304 21.1774 29.3679 20.8024C29.3054 20.4274 29.2534 19.9274 29.2117 19.3024C29.3159 19.1566 29.4304 19.0004 29.5554 18.8337C29.6804 18.6462 29.8054 18.417 29.9304 18.1462C30.0554 17.8545 30.1804 17.5108 30.3054 17.1149C30.4513 16.6983 30.5971 16.1983 30.7429 15.6149C30.9513 14.9066 31.0763 14.2191 31.1179 13.5524C31.1596 12.8858 31.1804 12.3858 31.1804 12.0524C31.1804 11.8649 31.0554 11.7399 30.8054 11.6774C30.7221 11.6566 30.6179 11.6462 30.4929 11.6462C30.3888 11.6254 30.2534 11.6254 30.0867 11.6462C29.67 11.667 29.3679 11.7399 29.1804 11.8649C28.9929 11.9691 28.7846 12.2712 28.5554 12.7712C28.4304 13.0212 28.2742 13.3649 28.0867 13.8024C27.92 14.2399 27.7534 14.7399 27.5867 15.3024C27.4409 15.8441 27.3054 16.4379 27.1804 17.0837C27.0763 17.7087 27.0242 18.3545 27.0242 19.0212C27.0242 19.3754 27.0554 19.7191 27.1179 20.0524C26.7013 20.6983 26.2429 21.2295 25.7429 21.6462C25.2429 22.042 24.7221 22.2399 24.1804 22.2399C23.3471 22.2399 22.795 22.0004 22.5242 21.5212C22.2534 21.042 22.17 20.3337 22.2742 19.3962C22.3159 18.9795 22.4304 18.4274 22.6179 17.7399C22.7846 17.1358 23.0242 16.3545 23.3367 15.3962C23.67 14.4379 24.1179 13.2399 24.6804 11.8024C24.5138 11.7399 24.3263 11.7087 24.1179 11.7087C23.9304 11.7087 23.7429 11.7191 23.5554 11.7399C23.3263 11.7816 23.1075 11.8233 22.8992 11.8649C22.3575 12.0316 21.9304 12.3441 21.6179 12.8024C21.3263 13.2399 21.0867 13.7608 20.8992 14.3649C20.8575 14.4691 20.7742 14.7295 20.6492 15.1462C20.545 15.5629 20.42 16.0733 20.2742 16.6774C20.1284 17.2608 20.0034 17.9066 19.8992 18.6149C19.795 19.3024 19.7429 19.9587 19.7429 20.5837C19.7429 20.9379 19.795 21.3337 19.8992 21.7712C20.0242 22.1879 20.2221 22.5837 20.4929 22.9587C20.7846 23.3129 21.1804 23.6149 21.6804 23.8649ZM56.8742 17.4274C56.7284 17.9899 56.6034 18.4795 56.4992 18.8962C56.4784 19.0004 56.3846 19.167 56.2179 19.3962C56.0721 19.6254 55.8742 19.8754 55.6242 20.1462C55.395 20.417 55.1242 20.6774 54.8117 20.9274C54.52 21.1774 54.2179 21.3858 53.9054 21.5524C53.6138 21.6983 53.3221 21.7816 53.0304 21.8024C52.7388 21.8024 52.4784 21.6879 52.2492 21.4587C52.1242 21.3337 52.0409 21.0733 51.9992 20.6774C51.9575 20.2608 51.9679 19.7816 52.0304 19.2399C52.1138 18.6983 52.2492 18.1254 52.4367 17.5212C52.6242 16.8962 52.8742 16.3129 53.1867 15.7712C53.9367 14.4587 54.5929 13.5629 55.1554 13.0837C55.7388 12.5837 56.145 12.4274 56.3742 12.6149C56.4367 12.6983 56.4784 12.8129 56.4992 12.9587C56.52 13.0837 56.5096 13.2608 56.4679 13.4899C56.4471 13.6983 56.3534 13.9691 56.1867 14.3024C56.3534 14.2608 56.52 14.2295 56.6867 14.2087C56.8534 14.1879 56.9888 14.1566 57.0929 14.1149C57.2179 14.0733 57.3325 14.042 57.4367 14.0212C57.52 14.0004 57.5304 14.167 57.4679 14.5212C57.4263 14.8545 57.3534 15.2816 57.2492 15.8024C57.145 16.3233 57.02 16.8649 56.8742 17.4274ZM90.8804 8.92744C90.7346 9.17744 90.6721 9.33369 90.6929 9.39619C90.8179 9.45869 90.9638 9.50035 91.1304 9.52119C91.2971 9.54202 91.4534 9.55244 91.5992 9.55244C91.7659 9.55244 91.9325 9.5316 92.0992 9.48994C92.7034 9.36494 93.1409 9.22952 93.4117 9.08369C93.6825 8.93785 93.8804 8.80244 94.0054 8.67744C94.0679 8.63577 94.1929 8.39619 94.3804 7.95869C94.5888 7.50035 94.7554 6.94827 94.8804 6.30244C95.0263 5.63577 95.0784 4.91702 95.0367 4.14619C94.995 3.37535 94.7554 2.64619 94.3179 1.95869C93.2763 0.16702 91.0784 -0.39548 87.7242 0.271186C87.12 0.396186 86.4221 0.687853 85.6304 1.14619C84.8596 1.60452 84.1409 2.19827 83.4742 2.92744C82.8284 3.6566 82.3075 4.51077 81.9117 5.48994C81.5367 6.44827 81.4325 7.51077 81.5992 8.67744C81.7242 9.51077 81.9638 10.2816 82.3179 10.9899C82.6929 11.6983 83.1096 12.3545 83.5679 12.9587C84.0263 13.5629 84.4846 14.1254 84.9429 14.6462C85.4221 15.1462 85.8284 15.6149 86.1617 16.0524C86.495 16.4899 86.8179 17.0212 87.1304 17.6462C87.4638 18.2504 87.7242 18.9066 87.9117 19.6149C88.12 20.3233 88.2138 21.0629 88.1929 21.8337C88.1929 22.6045 88.0159 23.3649 87.6617 24.1149C86.5992 26.5316 85.3075 27.7191 83.7867 27.6774C83.1617 27.6566 82.6617 27.4587 82.2867 27.0837C81.9117 26.7295 81.62 26.292 81.4117 25.7712C81.2242 25.2712 81.1096 24.7399 81.0679 24.1774C81.0471 23.6358 81.0784 23.167 81.1617 22.7712C81.2034 22.6462 81.2659 22.5004 81.3492 22.3337C81.4742 22.0212 81.6929 21.6879 82.0054 21.3337C81.7763 21.2504 81.5263 21.2191 81.2554 21.2399C81.0054 21.2399 80.7659 21.2608 80.5367 21.3024C80.2659 21.3649 79.995 21.4379 79.7242 21.5212C79.495 21.6254 79.2763 21.7399 79.0679 21.8649C78.8804 21.9691 78.6929 22.0941 78.5054 22.2399C78.3179 22.3858 78.1409 22.5524 77.9742 22.7399C77.745 23.4691 77.6929 24.167 77.8179 24.8337C77.9221 25.5212 78.0888 26.1254 78.3179 26.6462C78.5679 27.2504 78.9117 27.8129 79.3492 28.3337C79.7242 28.792 80.1513 29.1254 80.6304 29.3337C81.1096 29.5629 81.5784 29.7087 82.0367 29.7712C82.5159 29.8545 82.9638 29.8649 83.3804 29.8024C83.8179 29.7608 84.1929 29.7087 84.5054 29.6462C84.9013 29.5629 85.4013 29.3754 86.0054 29.0837C86.6096 28.8129 87.2034 28.3649 87.7867 27.7399C88.3909 27.1149 88.9429 26.2816 89.4429 25.2399C89.9429 24.2191 90.3075 22.9379 90.5367 21.3962C90.6825 20.3337 90.6929 19.3649 90.5679 18.4899C90.4429 17.6149 90.2242 16.8233 89.9117 16.1149C89.5992 15.4066 89.2346 14.7712 88.8179 14.2087C88.4013 13.6462 87.9846 13.1462 87.5679 12.7087C87.1513 12.2504 86.7659 11.8441 86.4117 11.4899C86.0575 11.1358 85.7971 10.8129 85.6304 10.5212C85.5054 10.3129 85.37 10.0733 85.2242 9.80244C85.0784 9.5316 84.9429 9.23994 84.8179 8.92744C84.6929 8.61494 84.5888 8.27119 84.5054 7.89619C84.4429 7.52119 84.4325 7.11494 84.4742 6.67744C84.5159 6.13577 84.6929 5.60452 85.0054 5.08369C85.3388 4.56285 85.7346 4.0941 86.1929 3.67744C86.6513 3.23994 87.1513 2.86494 87.6929 2.55244C88.2554 2.2191 88.7867 1.97952 89.2867 1.83369C89.8075 1.66702 90.2659 1.60452 90.6617 1.64619C91.0784 1.66702 91.3909 1.80244 91.5992 2.05244C91.9534 2.5316 92.1721 3.0316 92.2554 3.55244C92.3388 4.07327 92.3388 4.5941 92.2554 5.11494C92.1929 5.63577 92.0679 6.14619 91.8804 6.64619C91.7138 7.12535 91.5367 7.56285 91.3492 7.95869C91.1825 8.33369 91.0263 8.6566 90.8804 8.92744ZM111.774 16.6149C111.628 16.6149 111.483 16.6983 111.337 16.8649C111.17 17.0316 110.962 17.2608 110.712 17.5524C110.462 17.8441 110.191 18.1566 109.899 18.4899C109.608 18.8024 109.305 19.1149 108.993 19.4274C108.68 19.7399 108.399 20.0004 108.149 20.2087C107.045 21.1045 106.212 21.6462 105.649 21.8337C105.108 22.0004 104.743 21.917 104.555 21.5837C104.41 21.3337 104.389 21.042 104.493 20.7087C104.597 20.3754 104.743 19.9691 104.93 19.4899C105.201 18.8024 105.43 18.1983 105.618 17.6774C105.826 17.1566 105.993 16.6879 106.118 16.2712C106.243 15.8337 106.337 15.4379 106.399 15.0837C106.483 14.7295 106.524 14.3858 106.524 14.0524C106.545 13.5108 106.503 13.0629 106.399 12.7087C106.295 12.3337 106.139 12.042 105.93 11.8337C105.743 11.6045 105.514 11.4483 105.243 11.3649C104.993 11.2608 104.722 11.2087 104.43 11.2087C103.868 11.2087 103.337 11.3337 102.837 11.5837C102.337 11.8129 101.858 12.1149 101.399 12.4899C100.962 12.8441 100.555 13.2399 100.18 13.6774C99.8054 14.1149 99.4825 14.542 99.2117 14.9587C99.67 13.1462 100.17 11.4483 100.712 9.86494C101.253 8.26077 101.743 6.61494 102.18 4.92744C102.285 4.4691 102.378 4.04202 102.462 3.64619C102.503 3.31285 102.524 2.98994 102.524 2.67744C102.545 2.36494 102.493 2.1566 102.368 2.05244C102.326 1.94827 102.233 1.88577 102.087 1.86494C101.941 1.82327 101.785 1.80244 101.618 1.80244C101.43 1.80244 101.222 1.82327 100.993 1.86494C100.764 1.9066 100.535 1.95869 100.305 2.02119C100.118 2.06285 99.92 2.11494 99.7117 2.17744C99.5242 2.23994 99.3471 2.32327 99.1804 2.42744C99.2429 2.7191 99.2742 3.04202 99.2742 3.39619C99.2742 3.75035 99.2534 4.0941 99.2117 4.42744C99.17 4.80244 99.1179 5.18785 99.0554 5.58369C98.9304 6.14619 98.7013 7.1566 98.3679 8.61494C98.0763 9.8441 97.6596 11.6254 97.1179 13.9587C96.5763 16.292 95.8367 19.3858 94.8992 23.2399C94.9617 23.4691 95.0554 23.6462 95.1804 23.7712C95.3054 23.917 95.4304 24.0316 95.5554 24.1149C95.7013 24.1983 95.8575 24.2608 96.0242 24.3024C96.17 24.3233 96.3159 24.3337 96.4617 24.3337C96.5867 24.3337 96.7221 24.3129 96.8679 24.2712C97.0138 24.2295 97.1492 24.1566 97.2742 24.0524C97.42 23.4483 97.5659 22.7608 97.7117 21.9899C97.8784 21.1983 98.0346 20.4691 98.1804 19.8024C98.3471 19.0108 98.5138 18.2087 98.6804 17.3962C98.9513 16.9587 99.2638 16.5108 99.6179 16.0524C99.9721 15.5941 100.337 15.1879 100.712 14.8337C101.108 14.4587 101.493 14.1566 101.868 13.9274C102.264 13.6983 102.628 13.5837 102.962 13.5837C103.441 13.5837 103.712 13.8233 103.774 14.3024C103.837 14.7608 103.785 15.3233 103.618 15.9899C103.472 16.6566 103.264 17.3545 102.993 18.0837C102.743 18.792 102.545 19.4066 102.399 19.9274C102.17 20.7608 102.045 21.4587 102.024 22.0212C102.024 22.5629 102.212 23.0733 102.587 23.5524C103.003 24.0941 103.42 24.3649 103.837 24.3649C104.274 24.3649 104.805 24.1879 105.43 23.8337C105.993 23.5212 106.576 23.1254 107.18 22.6462C107.785 22.167 108.378 21.6566 108.962 21.1149C109.566 20.5733 110.128 20.0212 110.649 19.4587C111.17 18.8754 111.628 18.3129 112.024 17.7712C112.191 17.542 112.274 17.3337 112.274 17.1462C112.295 16.9587 112.253 16.8233 112.149 16.7399C112.066 16.6358 111.941 16.5941 111.774 16.6149Z" fill="url(#paint0_linear_5_28)"/>
<defs>
<linearGradient id="paint0_linear_5_28" x1="126.671" y1="-25.8183" x2="-16.9863" y2="42.8894" gradientUnits="userSpaceOnUse">
<stop stop-color="#FD0BC8"/>
<stop offset="1" stop-color="#3B252C"/>
</linearGradient>
</defs>
</svg>
