<svg width="71" height="65" viewBox="0 0 71 65" fill="none" xmlns="http://www.w3.org/2000/svg">
<g opacity="0.4" filter="url(#filter0_f_3_85)">
<ellipse cx="35.5" cy="42" rx="20.5" ry="8" fill="#519872"/>
</g>
<circle cx="36" cy="19" r="19" fill="#519872"/>
<path fill-rule="evenodd" clip-rule="evenodd" d="M17 19C17 29.4934 25.5066 38 36 38C46.4934 38 55 29.4934 55 19C55 8.50659 46.4934 0 36 0C25.5066 0 17 8.50659 17 19ZM45.7735 19.1051C45.7735 19.8076 45.6972 20.4912 45.5506 21.1514C45.9236 21.8915 46.1333 22.7243 46.1333 23.6065C46.1333 26.6583 43.6238 29.1333 40.5281 29.1333C39.5688 29.1333 38.668 28.8949 37.878 28.4767C37.3036 28.5812 36.7126 28.6364 36.1072 28.6364C30.7689 28.6364 26.441 24.37 26.441 19.1051C26.441 18.4497 26.5089 17.8083 26.6364 17.1904C26.1479 16.3681 25.8667 15.4143 25.8667 14.3947C25.8667 11.3405 28.3762 8.86667 31.4731 8.86667C32.5682 8.86667 33.5906 9.17796 34.4545 9.71478C34.9931 9.62316 35.5448 9.575 36.1072 9.575C41.4468 9.575 45.7735 13.8426 45.7735 19.1051Z" fill="white"/>
<path d="M41.0655 23.6605C40.6186 24.2855 39.9585 24.7788 39.1005 25.1289C38.2533 25.4766 37.2381 25.6539 36.081 25.6539C34.6928 25.6539 33.5286 25.4131 32.6194 24.9374C31.97 24.592 31.435 24.1245 31.0287 23.5442C30.6176 22.9616 30.4102 22.3825 30.4102 21.8222C30.4102 21.4745 30.5461 21.1714 30.813 20.9235C31.0775 20.6768 31.4171 20.5535 31.8223 20.5535C32.1535 20.5535 32.4407 20.651 32.6731 20.8448C32.8959 21.0316 33.0865 21.3076 33.2403 21.6612C33.4118 22.0489 33.5977 22.3754 33.7944 22.6303C33.985 22.8794 34.2579 23.0873 34.6058 23.2506C34.9562 23.4127 35.4292 23.4972 36.0095 23.4972C36.8091 23.4972 37.4645 23.3281 37.9566 22.9968C38.4392 22.6738 38.6727 22.2838 38.6727 21.8069C38.6727 21.4322 38.55 21.1361 38.2998 20.9036C38.0352 20.6616 37.6885 20.4736 37.2679 20.3421C36.8282 20.2082 36.2324 20.0613 35.4948 19.9086C34.4902 19.6972 33.6383 19.447 32.9614 19.1615C32.2679 18.8714 31.7091 18.4685 31.3003 17.9645C30.8857 17.4512 30.6748 16.8086 30.6748 16.0533C30.6748 15.3344 30.8952 14.6848 31.3313 14.1257C31.7627 13.5701 32.3942 13.1354 33.2081 12.8406C34.01 12.5481 34.9633 12.4001 36.0441 12.4001C36.9068 12.4001 37.6658 12.4988 38.2998 12.6938C38.9373 12.8888 39.4735 13.1519 39.8953 13.4773C40.3207 13.8062 40.6377 14.1551 40.8355 14.5192C41.0357 14.8869 41.1382 15.2522 41.1382 15.6058C41.1382 15.9464 41.0047 16.2565 40.7414 16.5255C40.4768 16.7981 40.142 16.9355 39.7488 16.9355C39.3913 16.9355 39.1101 16.8486 38.917 16.6794C38.7359 16.5208 38.5476 16.2742 38.3391 15.9218C38.0984 15.4707 37.8065 15.1148 37.4716 14.8634C37.1463 14.6191 36.6041 14.4969 35.857 14.4969C35.1659 14.4969 34.6011 14.6331 34.1828 14.9045C33.7801 15.1641 33.5834 15.4636 33.5834 15.8184C33.5834 16.0345 33.6466 16.2166 33.7777 16.3717C33.9135 16.5385 34.1077 16.6818 34.3532 16.8039C34.607 16.9296 34.8692 17.0307 35.1313 17.1011C35.3994 17.1751 35.8499 17.2844 36.4683 17.4253C37.2512 17.5898 37.9697 17.7766 38.6048 17.9774C39.2495 18.1795 39.8048 18.4285 40.26 18.721C40.7223 19.0182 41.0881 19.3988 41.3491 19.8546C41.61 20.3139 41.7423 20.8777 41.7423 21.5344C41.7423 22.319 41.5135 23.0344 41.0655 23.6605Z" fill="white"/>
<defs>
<filter id="filter0_f_3_85" x="0" y="19" width="71" height="46" filterUnits="userSpaceOnUse" color-interpolation-filters="sRGB">
<feFlood flood-opacity="0" result="BackgroundImageFix"/>
<feBlend mode="normal" in="SourceGraphic" in2="BackgroundImageFix" result="shape"/>
<feGaussianBlur stdDeviation="7.5" result="effect1_foregroundBlur_3_85"/>
</filter>
</defs>
</svg>
