<svg width="71" height="65" viewBox="0 0 71 65" fill="none" xmlns="http://www.w3.org/2000/svg">
<g opacity="0.4" filter="url(#filter0_f_3_100)">
<ellipse cx="35.5" cy="42" rx="20.5" ry="8" fill="#519872"/>
</g>
<circle cx="36" cy="19" r="19" fill="#519872"/>
<path fill-rule="evenodd" clip-rule="evenodd" d="M36 38C46.4934 38 55 29.4934 55 19C55 8.50659 46.4934 0 36 0C25.5066 0 17 8.50659 17 19C17 29.4934 25.5066 38 36 38ZM28.8052 11.851C30.5422 10.2574 33.6478 10.0201 35.0923 10.0026C35.5727 9.99417 35.8713 10.0139 35.8713 10.0139C39.8966 10.0285 41.6983 11.3414 42.1466 11.7542H42.1556C43.6412 13.0435 44.4641 15.8937 43.9106 20.4173C43.4187 24.4116 40.6301 25.1143 39.6981 25.3492C39.608 25.3719 39.5353 25.3902 39.4837 25.4067C39.2289 25.4888 37.0166 26.0423 34.1282 25.8021L33.0791 26.9884C32.9827 27.0913 32.893 27.193 32.8074 27.2899C32.3937 27.7589 32.0783 28.1162 31.5879 27.961C31.1075 27.8119 31.134 27.0852 31.134 27.0852V25.2689C26.9124 24.0764 26.9653 19.6967 27.0092 17.3646C27.062 15.024 27.5132 13.1313 28.8052 11.851ZM35.801 11.2891C35.801 11.2891 35.5519 11.2716 35.1418 11.2744H35.1407C33.9133 11.2834 31.2763 11.4623 29.8087 12.7892C28.7186 13.8704 28.3524 15.4667 28.3085 17.4181C28.3072 17.4854 28.3057 17.555 28.3041 17.6264C28.2603 19.6241 28.183 23.1391 31.6396 24.0949L31.6223 27.1094C31.6166 27.2736 31.6459 27.3934 31.7426 27.4171C31.8101 27.4317 31.9158 27.4024 32.0064 27.3029C32.5779 26.7347 34.4061 24.5286 34.4061 24.5286C36.8608 24.6867 38.8093 24.2063 39.0202 24.1388C39.0692 24.1232 39.1396 24.1068 39.2271 24.0865C40.0237 23.9013 42.2377 23.3868 42.6416 20.0871C43.1135 16.3105 42.4689 13.741 41.2179 12.6689C40.8343 12.3235 39.2081 11.2981 35.801 11.2891ZM35.3257 13.2415C35.3531 13.2304 35.3823 13.2249 35.4118 13.2252V13.2246C36.7387 13.2246 37.8671 13.6729 38.7576 14.5431C39.2144 15.0151 39.5706 15.5751 39.8043 16.1891C40.038 16.803 40.1444 17.4581 40.1171 18.1144C40.1165 18.1738 40.0925 18.2306 40.0502 18.2723C40.0342 18.2881 40.0161 18.3012 39.9966 18.3115C39.9645 18.3283 39.9285 18.3373 39.8915 18.3372V18.3462C39.7656 18.3462 39.666 18.2438 39.666 18.1206C39.6508 16.7262 39.2526 15.6597 38.4352 14.866C38.0349 14.4775 37.5616 14.1721 37.0427 13.9675C36.5238 13.7628 35.9695 13.6629 35.4118 13.6735C35.2886 13.6735 35.1862 13.5739 35.1862 13.4479C35.1863 13.4185 35.1922 13.3893 35.2036 13.3621C35.2108 13.3449 35.2201 13.3288 35.2313 13.314C35.2378 13.3054 35.2449 13.2972 35.2526 13.2896C35.2736 13.2689 35.2985 13.2525 35.3257 13.2415ZM31.9868 13.8315C32.1252 13.7497 32.2877 13.7177 32.4468 13.741L32.4457 13.7399C32.5944 13.7681 32.7283 13.848 32.8237 13.9654C33.2603 14.4636 33.6469 15.0033 33.978 15.577C34.1945 15.9612 34.0539 16.3504 33.852 16.5147L33.4301 16.8544C33.2136 17.0187 33.2428 17.341 33.2428 17.341C33.2428 17.341 33.8672 19.7108 36.2077 20.3087L36.2167 20.3031C36.2167 20.3031 36.5306 20.3324 36.7033 20.1214L37.0402 19.6967C37.1983 19.4858 37.5881 19.3598 37.9717 19.5679C38.5446 19.9013 39.0842 20.2888 39.5833 20.725C39.8325 20.9331 39.891 21.2408 39.7183 21.5659V21.5716C39.5343 21.8947 39.2987 22.1856 39.0208 22.4327C38.7927 22.6399 38.5018 22.7646 38.1945 22.7871C38.0977 22.7871 38.0015 22.7725 37.8958 22.7404V22.7348C37.5352 22.6291 36.9344 22.3742 35.9445 21.8354C35.0782 21.3563 34.2768 20.7686 33.5594 20.0865L33.5358 20.0663L33.5156 20.0427L33.4835 20.019L33.4633 19.9898C32.7832 19.2751 32.1982 18.4755 31.7229 17.611C31.3539 16.9956 31.0519 16.342 30.8207 15.6625L30.806 15.6535C30.765 15.5219 30.7532 15.3841 30.7706 15.2462C30.7999 15.015 30.9113 14.7749 31.1165 14.5375C31.3636 14.2583 31.6533 14.0201 31.9749 13.8315H31.9868ZM35.8038 14.8604C35.5024 14.8604 35.5024 14.4092 35.801 14.4092H35.8331C36.809 14.4762 37.5735 14.8131 38.1213 15.4139C38.6664 16.0146 38.9443 16.7644 38.924 17.6582C38.9236 17.7179 38.8997 17.7751 38.8575 17.8173C38.8153 17.8595 38.7582 17.8834 38.6985 17.8838L38.6895 17.872C38.6302 17.8717 38.5734 17.8482 38.5313 17.8066C38.4891 17.765 38.465 17.7085 38.4639 17.6492C38.4863 17.2992 38.4382 16.9482 38.3224 16.6171C38.2067 16.2859 38.0256 15.9814 37.79 15.7216C37.5318 15.4546 37.2234 15.2411 36.8826 15.0933C36.5418 14.9456 36.1752 14.8664 35.8038 14.8604ZM36.156 16.0821C35.8511 16.0731 35.8629 15.613 36.1706 15.622V15.6226H36.1796C37.1522 15.6749 37.7 16.2408 37.7529 17.2454C37.7548 17.2754 37.7505 17.3055 37.7406 17.334C37.7343 17.352 37.7258 17.3691 37.7152 17.3849C37.7091 17.394 37.7024 17.4027 37.695 17.4109C37.6828 17.4244 37.6691 17.4364 37.6541 17.4466C37.6442 17.4532 37.6339 17.4591 37.6232 17.4642C37.5959 17.477 37.5664 17.4843 37.5364 17.4856H37.5273C37.4689 17.4853 37.4128 17.4621 37.3712 17.421C37.3295 17.3799 37.3056 17.3241 37.3046 17.2656C37.2573 16.495 36.8973 16.1204 36.156 16.0821Z" fill="white"/>
<defs>
<filter id="filter0_f_3_100" x="0" y="19" width="71" height="46" filterUnits="userSpaceOnUse" color-interpolation-filters="sRGB">
<feFlood flood-opacity="0" result="BackgroundImageFix"/>
<feBlend mode="normal" in="SourceGraphic" in2="BackgroundImageFix" result="shape"/>
<feGaussianBlur stdDeviation="7.5" result="effect1_foregroundBlur_3_100"/>
</filter>
</defs>
</svg>
