<svg width="71" height="65" viewBox="0 0 71 65" fill="none" xmlns="http://www.w3.org/2000/svg">
<g opacity="0.4" filter="url(#filter0_f_3_88)">
<ellipse cx="35.5" cy="42" rx="20.5" ry="8" fill="#519872"/>
</g>
<circle cx="34" cy="19" r="19" fill="#519872"/>
<path fill-rule="evenodd" clip-rule="evenodd" d="M34 0C23.5066 0 15 8.50659 15 19C15 29.4934 23.5066 38 34 38C44.4934 38 53 29.4934 53 19C53 8.50659 44.4934 0 34 0ZM35.547 24.9978C35.3597 25.1953 34.9939 25.2352 34.9939 25.2352H33.7826C33.7826 25.2352 31.1102 25.3929 28.756 22.9876C26.1887 20.3634 23.9217 15.1569 23.9217 15.1569C23.9217 15.1569 23.7909 14.8154 23.9326 14.6509C24.0922 14.4651 24.5274 14.4534 24.5274 14.4534L27.4228 14.4349C27.4228 14.4349 27.6954 14.4787 27.8907 14.6198C28.0522 14.7365 28.1424 14.9535 28.1424 14.9535C28.1424 14.9535 28.6103 16.1153 29.2298 17.1661C30.4401 19.2182 31.0032 19.6667 31.4135 19.4468C32.0122 19.1267 31.8328 16.5463 31.8328 16.5463C31.8328 16.5463 31.8437 15.6103 31.5315 15.1929C31.2896 14.8698 30.8337 14.7755 30.6324 14.7492C30.4689 14.7278 30.7365 14.3561 31.0835 14.1897C31.6048 13.9397 32.5247 13.9251 33.6121 13.9358C34.4596 13.9445 34.7035 13.9961 35.0345 14.0749C35.8029 14.2569 35.7789 14.8402 35.7272 16.0991C35.7117 16.4756 35.6937 16.9125 35.6937 17.4172C35.6937 17.5306 35.6904 17.6515 35.6869 17.7758C35.6689 18.4208 35.6484 19.1593 36.0813 19.4342C36.3033 19.5743 36.8455 19.4546 38.2026 17.1934C38.8459 16.1211 39.3276 14.8611 39.3276 14.8611C39.3276 14.8611 39.4337 14.6363 39.5972 14.54C39.7648 14.4417 39.9908 14.4719 39.9908 14.4719L43.0378 14.4534C43.0378 14.4534 43.9538 14.3454 44.1015 14.7521C44.2571 15.1773 43.7595 16.1717 42.5145 17.8005C41.3335 19.346 40.7588 19.915 40.8115 20.4183C40.8501 20.786 41.2236 21.1186 41.9405 21.7713C43.4371 23.1352 43.8383 23.8528 43.9346 24.0252C43.9426 24.0395 43.9485 24.0501 43.9528 24.0569C44.6238 25.1496 43.2083 25.2352 43.2083 25.2352L40.5013 25.2722C40.5013 25.2722 39.9204 25.3851 39.1551 24.8694C38.7543 24.5995 38.3626 24.1587 37.9895 23.7388C37.4197 23.0975 36.8934 22.5052 36.4441 22.6451C35.6898 22.8806 35.7126 24.4753 35.7126 24.4753C35.7126 24.4753 35.7185 24.8168 35.547 24.9978Z" fill="white"/>
<defs>
<filter id="filter0_f_3_88" x="0" y="19" width="71" height="46" filterUnits="userSpaceOnUse" color-interpolation-filters="sRGB">
<feFlood flood-opacity="0" result="BackgroundImageFix"/>
<feBlend mode="normal" in="SourceGraphic" in2="BackgroundImageFix" result="shape"/>
<feGaussianBlur stdDeviation="7.5" result="effect1_foregroundBlur_3_88"/>
</filter>
</defs>
</svg>
