<svg width="71" height="65" viewBox="0 0 71 65" fill="none" xmlns="http://www.w3.org/2000/svg">
<g opacity="0.4" filter="url(#filter0_f_3_87)">
<ellipse cx="35.5" cy="42" rx="20.5" ry="8" fill="#519872"/>
</g>
<circle cx="36" cy="19" r="19" fill="#519872"/>
<path fill-rule="evenodd" clip-rule="evenodd" d="M17 19C17 29.4934 25.5066 38 36 38C46.4934 38 55 29.4934 55 19C55 8.50659 46.4934 0 36 0C25.5066 0 17 8.50659 17 19ZM47.9242 18.2729C47.9217 24.5007 42.8554 29.5682 36.6263 29.5707H36.6216C34.7307 29.5701 32.8728 29.0957 31.2226 28.1956L25.2333 29.7667L26.8362 23.9122C25.8475 22.1987 25.3272 20.2552 25.3281 18.2639C25.3305 12.0347 30.3988 6.96667 36.6262 6.96667C39.6485 6.96797 42.4852 8.14456 44.6182 10.2801C46.7513 12.4156 47.9254 15.2541 47.9242 18.2729Z" fill="white"/>
<path fill-rule="evenodd" clip-rule="evenodd" d="M27.946 27.0826L31.5001 26.1502L31.843 26.3538C33.2847 27.2093 34.9374 27.662 36.6225 27.6627H36.6263C41.802 27.6627 46.0145 23.4501 46.0166 18.2722C46.0176 15.763 45.0417 13.4038 43.2688 11.6288C41.4959 9.85379 39.1381 8.8758 36.63 8.87493C31.4502 8.87493 27.2377 13.0871 27.2356 18.2646C27.2349 20.039 27.7313 21.767 28.6713 23.262L28.8946 23.6173L27.946 27.0826ZM41.9315 20.7053C42.1284 20.8005 42.2613 20.8647 42.3181 20.9595C42.3887 21.0772 42.3887 21.6424 42.1535 22.3019C41.9182 22.9613 40.7904 23.5632 40.248 23.6442C39.7617 23.7169 39.1462 23.7472 38.47 23.5323C38.0599 23.4022 37.5341 23.2285 36.8606 22.9377C34.2141 21.7949 32.4256 19.2299 32.0876 18.7451C32.0639 18.7111 32.0474 18.6874 32.0381 18.6751L32.0359 18.672C31.8865 18.4727 30.8854 17.1371 30.8854 15.7548C30.8854 14.4544 31.5242 13.7729 31.8182 13.4591C31.8384 13.4376 31.8569 13.4179 31.8735 13.3998C32.1322 13.1171 32.4381 13.0465 32.6263 13.0465C32.8144 13.0465 33.0028 13.0482 33.1673 13.0565C33.1876 13.0575 33.2087 13.0574 33.2305 13.0572C33.3951 13.0563 33.6001 13.0551 33.8025 13.5411C33.8803 13.7281 33.9942 14.0054 34.1143 14.2978C34.3572 14.8892 34.6256 15.5426 34.6728 15.6372C34.7434 15.7785 34.7905 15.9433 34.6964 16.1318C34.6823 16.16 34.6692 16.1867 34.6567 16.2122C34.586 16.3565 34.534 16.4626 34.4141 16.6027C34.3669 16.6577 34.3182 16.7171 34.2694 16.7765C34.1723 16.8947 34.0752 17.013 33.9906 17.0972C33.8493 17.238 33.7022 17.3907 33.8669 17.6734C34.0315 17.956 34.5981 18.8804 35.4373 19.629C36.3394 20.4336 37.1235 20.7737 37.5209 20.9461C37.5985 20.9798 37.6614 21.007 37.7075 21.0301C37.9897 21.1715 38.1544 21.1478 38.3191 20.9595C38.4838 20.7711 39.0248 20.1351 39.2129 19.8526C39.4011 19.5701 39.5894 19.6171 39.8481 19.7113C40.1069 19.8056 41.4948 20.4884 41.7771 20.6297C41.8322 20.6573 41.8837 20.6822 41.9315 20.7053Z" fill="white"/>
<defs>
<filter id="filter0_f_3_87" x="0" y="19" width="71" height="46" filterUnits="userSpaceOnUse" color-interpolation-filters="sRGB">
<feFlood flood-opacity="0" result="BackgroundImageFix"/>
<feBlend mode="normal" in="SourceGraphic" in2="BackgroundImageFix" result="shape"/>
<feGaussianBlur stdDeviation="7.5" result="effect1_foregroundBlur_3_87"/>
</filter>
</defs>
</svg>
